<svg width="96" height="96" xmlns="http://www.w3.org/2000/svg" xmlns:xlink="http://www.w3.org/1999/xlink"><defs><path d="M11.334 17.02l37.077 46.978-28.768 22.735C7.733 77.998 0 63.902 0 48a47.809 47.809 0 0 1 11.334-30.98z" id="a"/><path d="M92.245 29.357A47.85 47.85 0 0 1 96 48c0 18.733-10.73 34.96-26.38 42.867L48.41 63.997l43.834-34.64z" id="b"/><path d="M19.643 86.733l28.768-22.735 21.208 26.87A47.799 47.799 0 0 1 48 96a47.784 47.784 0 0 1-28.357-9.267z" id="c"/><path d="M92.245 29.357l-43.834 34.64-37.077-46.976C20.14 6.61 33.298 0 48 0c19.898 0 36.968 12.107 44.245 29.357z" id="d"/></defs><g fill="none" fill-rule="evenodd"><use fill="#DCDCDC" xlink:href="#a"/><use fill="#E1E1E1" xlink:href="#b"/><use fill="#D9D9D9" xlink:href="#c"/><use fill="#E6E6E6" xlink:href="#d"/></g></svg>